<svg width="10" height="19" viewBox="0 0 50 92" fill="none" xmlns="http://www.w3.org/2000/svg">
    <path d="M41.6256 2H8.37441C8.37441 2 -13.9662 54.6172 25 54.6172C63.9662 54.6172 41.6256 2 41.6256 2Z" stroke="white" stroke-width="4"/>
    <line x1="26.0808" y1="56.7478" x2="26.0808" y2="85.911" stroke="white" stroke-width="4" stroke-linecap="square"/>
    <path d="M23.3128 87.6973L19.1564 89.3947M23.3128 87.6973V86.9139M23.3128 87.6973V88.546M19.1564 89.3947H18.7667M19.1564 89.3947H20.4553M23.3128 86.9139V86C18.6368 89.3947 15.7793 89.3947 15 89.3947H18.7667M23.3128 86.9139L18.7667 89.3947M23.3128 88.546V89.3947H20.4553M23.3128 88.546L20.4553 89.3947" stroke="white" stroke-width="2"/>
    <path d="M29 87.6973L33.1564 89.3947M29 87.6973V86.9139M29 87.6973V88.546M33.1564 89.3947H33.546M33.1564 89.3947H31.8575M29 86.9139V86C33.6759 89.3947 36.5334 89.3947 37.3127 89.3947H33.546M29 86.9139L33.546 89.3947M29 88.546V89.3947H31.8575M29 88.546L31.8575 89.3947" stroke="white" stroke-width="2"/>
    <rect x="7.45532" y="87.911" width="35.3293" height="4" rx="1" fill="white"/>
    <path d="M7.39599 33.1162C8.99456 43.2376 17.0198 49 26.0278 49C35.0358 49 43.788 39.9751 43.3996 34.0788C43.0113 28.1826 42.5539 26.6183 42.5539 26.6183C33.251 30.2282 21.9304 20 16.3365 20C9.57071 20.361 5.70455 22.4066 7.39599 33.1162Z" fill="#843737"/>
    <path d="M7.39599 33.1162C8.99456 43.2376 17.0198 49 26.0278 49C35.0358 49 43.788 39.9751 43.3996 34.0788C43.0113 28.1826 42.5539 26.6183 42.5539 26.6183C33.251 30.2282 21.9304 20 16.3365 20C9.57071 20.361 5.70455 22.4066 7.39599 33.1162Z" fill="#843737"/>
    <path d="M7.39599 33.1162C8.99456 43.2376 17.0198 49 26.0278 49C35.0358 49 43.788 39.9751 43.3996 34.0788C43.0113 28.1826 42.5539 26.6183 42.5539 26.6183C33.251 30.2282 21.9304 20 16.3365 20C9.57071 20.361 5.70455 22.4066 7.39599 33.1162Z" fill="#843737"/>
    <path d="M7.39599 33.1162C8.99456 43.2376 17.0198 49 26.0278 49C35.0358 49 43.788 39.9751 43.3996 34.0788C43.0113 28.1826 42.5539 26.6183 42.5539 26.6183C33.251 30.2282 21.9304 20 16.3365 20C9.57071 20.361 5.70455 22.4066 7.39599 33.1162Z" fill="#843737"/>
    <path d="M43.9741 33.5975C43.9741 43.8434 34.497 49 25.489 49C16.481 49 7.72883 43.5851 7.24555 34.1992C6.76228 24.8133 7.24555 26.7386 7.24555 26.7386C13.7697 36.9668 29.2304 19.3983 35.3049 20C42.0707 20.361 43.9741 22.0456 43.9741 33.5975Z" fill="#A93E3E"/>
    <path d="M43.9741 33.5975C43.9741 43.8434 34.497 49 25.489 49C16.481 49 7.72883 43.5851 7.24555 34.1992C6.76228 24.8133 7.24555 26.7386 7.24555 26.7386C13.7697 36.9668 29.2304 19.3983 35.3049 20C42.0707 20.361 43.9741 22.0456 43.9741 33.5975Z" fill="#A93E3E"/>
    <path d="M43.9741 33.5975C43.9741 43.8434 34.497 49 25.489 49C16.481 49 7.72883 43.5851 7.24555 34.1992C6.76228 24.8133 7.24555 26.7386 7.24555 26.7386C13.7697 36.9668 29.2304 19.3983 35.3049 20C42.0707 20.361 43.9741 22.0456 43.9741 33.5975Z" fill="#A93E3E"/>
    <path d="M43.9741 33.5975C43.9741 43.8434 34.497 49 25.489 49C16.481 49 7.72883 43.5851 7.24555 34.1992C6.76228 24.8133 7.24555 26.7386 7.24555 26.7386C13.7697 36.9668 29.2304 19.3983 35.3049 20C42.0707 20.361 43.9741 22.0456 43.9741 33.5975Z" fill="#A93E3E"/>
</svg>