<svg width="11.9" height="12" viewBox="0 0 150 159" fill="none" xmlns="http://www.w3.org/2000/svg">
    <path d="M74.7104 43.1081C66.9884 43.1081 60.6178 45.1906 55.5984 49.3556C50.5791 53.3124 46.9112 58.6228 44.5946 65.2868C42.278 71.7426 41.1197 79.0314 41.1197 87.1532V138.44C41.1197 149.795 31.9147 159 20.5598 159C9.20496 159 0 149.795 0 138.44V81.8428C0 66.8487 2.7027 53.2082 8.10811 40.9214C13.7066 28.4263 22.0077 18.5344 33.0116 11.2456C44.0154 3.74853 57.9151 0 74.7104 0C91.5058 0 105.405 3.74853 116.409 11.2456C127.606 18.5344 136.004 28.3222 141.602 40.609C147.201 52.8959 150 66.6405 150 81.8428V138.44C150 149.795 140.795 159 129.44 159C118.085 159 108.88 149.795 108.88 138.44V87.1532C108.88 79.2397 107.625 71.9509 105.116 65.2868C102.606 58.6228 98.8417 53.3124 93.8224 49.3556C88.9961 45.1906 82.6255 43.1081 74.7104 43.1081Z" fill="url(#paint0_linear_320_1429)"/>
    <defs>
        <linearGradient id="paint0_linear_320_1429" x1="271.631" y1="-23.2191" x2="271.631" y2="149.634" gradientUnits="userSpaceOnUse">
            <stop stop-color="#FF411A" />
            <stop offset="1" stop-color="#FF6C4D" />
        </linearGradient>
    </defs>
</svg>